<svg xmlns="http://www.w3.org/2000/svg" fill-rule="evenodd" clip-rule="evenodd" image-rendering="optimizeQuality" shape-rendering="geometricPrecision" text-rendering="geometricPrecision" viewBox="0 0 2419.43 1772.74">
	<defs />
	<defs>
		<style>
			.fil0 {
				fill: #fff
			}
		</style>
	</defs>
	<path d="M470.02 1440.2c3.35.47 8.67 2.84 12.41 3.83l96.81 20.03c73.61 16.72 148.39 30.14 220.81 46.82 25.02 5.76 31.54 4.05 50.26 17.34l355.13 244.53 80.47-54.34c91.79-60.04 186.84-128.15 278.39-188.18 18.71-12.26 18.52-15.89 45.9-21.61 37.25-7.78 73.15-14.8 110.37-22.75 36.87-7.88 73.09-14.8 109.97-23.01 27.7-6.16 84.36-18.31 110.56-21.08-12.54-5.44-669.46-2.16-742.24-1.97l-552.15.96c-24.9.12-32.79.3-55.18-2.94-5.55-.8-.37.15-7.38 1.69-4.85 1.07-17.19.82-22.89.88-29.71.33-61.66.75-91.23-.18zm1093.71-79.63c-14.38 1.23-39.88 3.13-50.22-3.93-13.89-9.5-11.16-28.04 1.51-34.98 13.18-7.21 34.13-4.4 50.36-4.23 13.22.15 11.97 1.02 18.21-7.46 4.09-5.55 8.29-9.43 11.12-15.42-24.22-.48-58.72-1.7-82.02.83-6.77.74-8.56 2.87-14.99 5.84-21.56 9.94-27.68 33.48-18.37 56.2 3.98 9.72 2.43 5.15 9.6 10.55 9.95 7.48 11.11 10.61 26.73 14.48 11.49 2.85 63.49 3.05 76.33 1.37 2.89-6.9 2.68-48.84-.39-54.57-8.29-2.73-33.51-.99-44.43-1.11-20.53-.22-19.68 5.11-27.53 17.65 7.3 5.34 31.92-.35 43.84 3.96l.24 10.81zm-978.37-66.95c-.37 14.92-2.06 80.67 1.75 90.51l25.82.03c2.01-8.32.72-34.64.69-44.93-.08-44.98 10.63-45.44-28.26-45.61zm1312.83 88.3c6.93 4 17.57 2.44 28.21 2.12l-.04-88.81-28.7-1.97c-.94 16.34-2.23 75.21.54 88.66zm-288.91 0c3.92 2.21 21.48 5.62 26.39 1.21 3.51-3.14 1.67-52.36 1.62-60.32v-22.86c-1.73-10.03-19.44-7.09-27.82-5.06-2.46 7.52-2.43 78.51-.2 87.03zm-378.7-6.38c.25 11.37 5.56 9.08 15.87 8.89 17.97-.34 36.41-.18 54.4.05 11.72.15 12.09-1.67 17.04-8.32 3.43-4.62 9.23-9.54 10.27-14.95l-68.83-.71.2-65.63-27.82-.43-1.14 81.11zM951 1318.09c9.81-1.93 24.5 2.56 32.44-2.13 4.87-2.89 13.4-15 14.02-21.17l-89.5-.4c-.99-.03-5.93-.13-6.65-.1-11.95.51-19.54 19.97-19.68 23.34 11.29-1.23 29.36-2.05 38.86.91l1.57 50.31c.12 16.11-4.62 16.89 28.24 15.36l.71-66.11zm888.81-.14c9.53-1.29 26.96 2.57 33.48-2.75 1.41-1.16 5.94-7.94 7.72-10.2 3.22-4.13 5.17-4.82 6.86-10.14-32.62-2.13-70.33-.4-103.52-1.1-3.82 9.19-8.66 7.38-14.7 23.73l41.25-.2.21 65.5c7.33 2.06 20.49 1.82 28.32.41l.37-65.25zm-1513.75-23.43c-33.88.11-67.91 1.59-101.68-1.26 0 20.03-2.45 74.56 1.32 90.7l28.13-.36c.22-5.52.16-10.97.12-16.49-.02-2.17-.16-6.27 0-8.24.49-6.09-.8-2.45 1.6-6.57 3.11-3.04 45.77-.5 49.35-1.75 4.31-3.32 13.41-15.29 16.15-20.99-17.21-.75-36.73-.52-54.04-.14-22.29.48-11.31-10.92-11.01-11.11 2.97-1.96 45.68-.9 53.46-1.18l16.61-22.61zm1731.51 66.69c-30.71-.93-70.34 5.52-83.35-8.56-5.27-5.7-7-14.59-2.51-22.67 8.48-15.24 27.49-12.47 48.81-12.53 13.41-.04 25.2 4.41 37.56-22.91-23.3-.22-63.6-2.3-84.78 2.06-45.72 9.41-49.65 84.59 22.73 87.71 5.97.26 39.8.69 43.32-.37 4.26-1.26 16.86-17.58 18.22-22.73zm-1267.98 4.29c.08-20.8-6.78-16.78 52.67-16.13.04 10.76-2.12 24.46 1.78 34.72l27.15.13.51-89.37c-10.98-.1-19.1-.99-29.43-1.59v31.84c-9.42 2.64-40.96 1.43-52.78 1.15l.02-31.02c-5.45-.53-23.96-1.68-28.42-1.02l-.2 41.74c-.16 55.41-6.5 49.26 28.35 48.09l.37-18.54zm298.94-37.45c-6.25-17.09 15.81-8.03 25.96-11.01 4.52-1.33 16.25-17.81 17.68-22.65-15.17.35-46.05-1.95-59.14 2.65-7.94 2.78-12.8 9.05-13.76 19.14-1.56 16.51 6.78 14.67 9.47 21.42-5.78 6.17-8.57 1.39-10.84 14.65-1.21 7.14-.89 16.95 4.42 21.67 15.29 13.56 64.59 12.28 83.92 10.65 9.57-.81 21.02-19.3 22.58-23.3l-29.42-.84.1-9.7c9.61-6 9.51 3.52 18.11-6.68 3.08-3.67 7.82-9.69 9.65-14.8-13.44 1.02-70.19 1.99-78.73-1.2zm6.9 21.4h24.1c2.7 0 4.9 2.21 4.9 4.9v5.74c0 2.7-2.2 4.9-4.9 4.9h-24.1c-2.7 0-4.9-2.2-4.9-4.9v-5.74c0-2.7 2.2-4.9 4.9-4.9zm-763.64-9.83c1.05 49.39-8.41 47.16 28.41 44.25l.69-23.25c52.5-3.6 41.22 2.48 50.51 11.71 2.67 2.65 5.69 5.25 8.56 8 7.16 6.85 26.83 4.67 40.07 3.98-6.2-10.56-21.15-19.34-25.85-28.66 5.91-5.72 20.17-8.09 20.72-27.88 1.21-42.58-61.96-33.65-106.9-34.04-3.73 8.43-13.11 13.26-14.4 23.38 24.41 1.72 71.49-3.87 90.13 3.51 1.89 8.39 2.6 10.07-3.14 13.96-13.08 8.86-68.29.66-85.93 3.98-.4.08-1.16.94-1.45.5-.28-.45-.99.28-1.42.56zm217.96-22.16c11.29-.04 20.37-13.33 24.52-22.77l-78.74-.34c-9.8.13-16.73-.65-26.16-1.08.01 13.31-2.23 78.45 2.18 90.89 11.98.08 81.53 2.33 87.24-1.52 3.32-2.24 14.94-17.68 15.36-21.47l-75.01-.92c-1.54-11.22.49-11.6 11.02-11.52 10.58.09 41.5 2.75 47.42-3.3 3.01-3.08 11.1-12.79 11.19-16.81l-69.93-.74c-.47-13.77 1.65-10.48 14.77-10.49l36.15.06zm811.6 29.99c-5.31-24.85 8.32-30.77 29.75-31.17 18.96-.35 40.6-3.62 44.25 15.81 3.9 20.79-8.6 29.38-27.69 30.45-17.54.97-42.81 1.28-46.3-15.09zm102.35 3.28c13.87-61.84-61.35-62.37-102.93-53.72-26.72 5.56-32.66 35.48-27.56 56.46 2.62 10.73 4.36 11.91 11.51 17.41 28.37 21.86 108.88 24.87 118.98-20.15zm650.5-20.46c-33.09.12-17-11.73-14.71-12.38 11.96-3.39 61.16 4.11 69.38-2.9 2.02-1.73 13-16.89 14.42-20.53-19.99-.09-85.27-1.75-99.41 1.8-14.52 3.65-22.38 19.73-15.68 38.04 24.28 26.77 73.85 4.06 89.55 16.43 4.32 14.07-22.36 10.34-33.69 10.34-13.3 0-39.37-2.62-45.47 1.8-3.98 2.88-12.43 16.42-13.97 21.33l43.01.26c33.37.03 76.05 6.24 79.1-25.51 3.4-35.36-40.03-28.81-72.52-28.68zm-1367.09-35.9c-36.95.03-93.54-6.28-110.41 16.99-24.12 33.26 1.02 70.8 42.81 72.52 19.06.78 47.1 1.13 65.9-.29l-.88-55.27-60.01-.56c-4.38 6.55-10.11 11.55-13.15 20.6 8.73-1.02 15.9-.73 24.65-.64 3.87.04 7.9.18 11.75.09l8.07-1.33.45 13.1c-5.87 2.24-50.41 8.09-58.29-12.13-4.31-11.06 1.54-20.6 8.19-24.98 12.17-8.02 47.91-5.06 64.11-5.26l16.81-22.84zm1005.56 23.03c3.82-4.37 13.64-16.38 15.58-23.2-22.7-.69-46.93.15-69.81.2-32.55.07-46 1.79-46 30.07 0 13.73 11 20.2 23.3 22.59 17.25 3.37 60.44-1.22 66.17 2.86 5.09 5.2 1.7 6.15-2.38 10.39-13.94 2.21-40.76.96-55.89.75-12.11-.17-22.46-3.89-33.58 23.31l41.81.04c37 .04 81.64 6.73 80.97-30.43-.69-38.71-70.57-16.62-92.28-26.26-1-12.68 6.07-10.25 17.88-10.19l54.23-.13zM343.6 406.61c1.42-1.16 1.3-1.15 3.43-2.28 0 0 850.73-285.12 860.06-285.09l866.11 280.8c.56 12.71-26.18 105.51-31.06 122.59-29.32 102.73-52.75 202.27-81.97 303.78-3.82 13.27-15.3 51.72-14.12 60.17 37.33 3.11 80.28-.68 118.18 1.26 20.61 1.06 339.87 5.25 355.19 2.41-13.73-3.3-27.96-4.76-41.73-7.94-14-3.23-29.02-5.36-43.06-8.02l-254.44-49.65c-.46-9.46 27.61-110.19 32-126.03 23.19-83.73 42.89-168.4 66.44-252.04 6.32-22.47 30.24-108.26 32.3-125.34L1226.38 6.4c-15.21-5.1-29.47-10.24-45.55-2.16l-985.2 321.18c-.96 20.96 108.83 394.01 119.83 434.63 17.2 63.55 25.01 59.16-6.19 65L38.75 883.96c-6.54 1.19-10.71 4.15-19.17 5.92-5.85 1.22-10.83 1.13-16.13 4.19-7.83 4.53 1.48-2.32-3.45 2.78l359.17-7.58c38.36-1.02 78.4-1.97 117.64-2.37-.07-12.08-92.25-330.55-100.34-359.9-6.39-23.18-32.24-102.35-32.87-120.38z" class="fil0" />
	<path d="M1284.59 590.49c-.04-13.72.42-27.48.06-41.18-.26-10.03-1.4-11.73 9.32-11.77l54.43.39c75.88-.07 60-7.43 84.17 25.86l32.98 45.82c1.99 2.67 3.25 5.13 5.1 8.11 1.33 2.16 15.41 17.98 6.85 27.75-5.92 5.81-29.1 2.13-38.71 2.34-13.49.29-27.54.12-41.08.12l-67.38.04c-56.36.58-45.67 2.54-45.55-18.06l-.18-39.41zm-640.29 639.5c2.29-4.36 10.03-35.41 11.82-43.66 3.21-14.68 6.94-30 11.06-44.98 3.49-12.71 9.57-32.83 11.36-44.94.5-3.43 9.19-43.95 9.24-44.04 5.29 1.7 5.16 5.03 7.77 11.11l18.85 38.81c8.53 16.78 16.82 34.97 25.41 51.74 22.22 43.39 30.5 80.62 72.86 80.77 16.71.05 20.44-.36 31.56-8.57 15.73-11.6 28.96-48.45 41.86-71.36 12-21.32 25.58-55.02 37.73-77.17 6.32-11.52 4.98-22.48 13.75-24.57l41.01 167.63c1.06 4.41 2.16 7.04 5.03 8.78 4.29 1.73 75.69 1.72 80.66-.31 2.59-6.49-1.77-11.98-3.69-17.81-2.18-6.58-1.82-12.44-4.02-18.98-1.99-5.92-5.06-11.09-6.2-16.42l-33.75-130.79c-8.38-28.17-11.25-46.21-20.29-73.47-8.2-24.73-24.63-41.88-52.96-38.75-20.37 2.26-18.98 4.36-30.2 15.77-12.11 12.33-34.97 59.43-42.64 75.65l-24.48 44.54c-5.9 10.03-26.29 57.09-31.73 61-4.81-2.95-2.73-.69-5.09-7.36L737.1 984.47c-5.92-9.16-8.44-20.52-15.13-29.11-23.65-30.38-42.71-20.82-62.13-23.22-27.8 33.31-19.16 11.25-34.6 65.74-6.88 24.31-15.25 51.51-21.38 77.19l-31.45 116.22c-3.11 10.54-12.42 30.1-8.43 39.23l80.31-.5zm1174.93-.77c7.34 3.51 40.79 1.31 51.75 1.26 47.19-.24 40.39 8.53 59.26-19.2 3.73-5.48 6.6-10.11 10.69-15.6l83.53-126.65c3.79-6.69 15.07-26.59 22.35-29.42 5.8 4.41 55.94 86.79 66.25 101.93 7.01 10.28 7.64 8.14 7.5 15.16l-115.63-1.45-12.28 18.33c-4.73 6.67-7.76 11.65-12.45 18.77-30.9 46.91-41.63 38.09 40.31 38.08h251.15c.69-7.15-7.79-14.07-11.76-20.4l-64.13-100.06c-2.11-3.03-4.8-5.9-7.04-9.48-2.32-3.72-3.79-7.02-5.88-10.52-4.33-7.28-8.96-12.04-13.26-19.62-11.04-19.45-37.31-57.57-51.52-79.81-17.72-27.76-34.43-59.26-71.01-57.81-26.5 1.04-31.6 7.86-44.21 21.07-14.55 15.24-41.45 58.47-54.32 77.14-4.25 6.15-7.45 13.18-12.8 20.05l-52.45 78.99c-4.55 7.42-8.49 13.18-12.99 19.86l-13.54 19.31c-4.55 6.74-8.57 13.32-13.16 19.63-4.89 6.74-23.56 34.22-24.38 40.43zm-635.31-182.09c-2.64-4.62-1.44-14.74-1.56-21.64-.33-18.59 2.26-12.14 51.01-12.38 28.45-.14 57-.13 85.45-.01 54.15.23 32.95 9.23 78.3-50.46 3.46-4.56 16.06-19.74 16.56-25.36l-80.07.47c-25.98-.09-53.18-1.27-78.88-.94l-118.31.65c-32.99.39-39.06-4.29-39.82 9.19l.52 136.42c.01 18.8-2.46 137.76 1.18 144.55 3.02 3.84 10.32 2.75 15.05 2.72 42.38-.26 241.13 1.97 246.77-.56 5.56-2.48 36.05-47.02 42.03-55.2 8.62-11.81 11.5-11.57 13.04-20.24-27.84-.68-222.49 5.67-230.87-.99-3.19-4.2-1.86-10.98-1.8-17.73.12-15.72-2.1-19.95 9.65-20.67 1.83-.12 6.13.24 8.32.29 5.98.12 12.09-.13 18.09-.13 11.5-.01 23 .06 34.51.05 23.57-.01 47.1-.02 70.67.08 13.39.06 24.13 3.03 30.79-4.7l37.59-51.03c4.57-4.44 6.09-2.74 5.9-10.71-30.81-3.51-203.54 5.41-214.1-1.69zm-719.76 57.3c-1.64 12.76-8.97 26.28-15.03 32.49-6.82 7-20.31 14.23-30.62 16.81-13.03 3.25-51.2 6.75-66.04 5.38-35.33-3.27-105.89 7.15-116.13-48.6-4.69-25.52-5.24-60.43 13.67-78.96 12.26-12.01 11.65-10.87 30.37-17.26 16.36-5.58 70.68-6.49 90.3-5.39 33.43 1.86 59.73 2.2 78.67 21.83l7.42 10.47c9.53 19.66 10.27 41.08 7.39 63.24zm84.24 1.64c7.83-56.91-11.34-107.46-41.51-131.24-4.09-3.22-8.84-8.32-12.3-10.66-4.03-2.73-10.49-3.92-15.18-6.09-5.31-2.46-8.37-6-14.94-8.19-68.94-22.99-184.75-24.61-242.92 5.35-28.09 14.47-31.56 17.54-48.18 39.26-27.41 35.81-30.07 103.87-16.55 145.82 3.55 11.03 11.09 28.67 19.2 36.97 3.11 3.17 2.1 2.29 4.65 5.28l24.24 20.18c36.56 21.1 77.42 30.05 121.34 31.74 49.59 1.91 114.53-2.13 153.04-23.16 47.61-26.01 61.67-51.24 69.11-105.26zm1173.03-93.1c17.28-.09 20.07 3.32 29.1-9.18l31.4-44.14c3.55-5.17 13.12-17.22 14.67-20.9-12.46-4.09-79.35-.43-98.14-.93-55.51-1.49-136.24-4.41-183.46 17.61-3.91 1.83-9.78 5.28-13.57 7.85-23.25 15.77-19.44 17.21-32.77 28.24-6.39 5.28-4.77 4.91-9.41 12.02-2.91 4.46-5.06 7.26-7.75 11.91-24.9 43.17-20.1 115.82 18.44 157.93 4.88 5.33 3.9 6.58 9.88 11.6 26.55 22.29 63.22 41.56 98.6 44.06 31.85 2.25 101.89 1.32 136.44 1.34 11.19.01 69.48 2.48 73.47-1.74 3.68-3.88.6-132.99 1.34-163.65.29-12.2 1.52-12.36-1.73-15.61-4.56-4.49-37.55-1.98-46.79-1.99l-59.16-.03c-89.02-.07-60.06-5.41-89.27 27.07-4.5 5.01-25.75 31.3-27.47 36.57 13.2 6.14 133.08-2.68 138.39 3.09 2.68 2.92 2.35 33.6-.57 40.99-8.97 1.85-30.44.64-39.89-.74-17.1-2.49-86.13 10.68-115.83-15.59-16.04-14.18-31.96-34.3-25.69-66.77 4.28-22.18 24.1-43.87 42.32-51.05 27.58-10.88 51.58-7.86 83.49-7.84l73.95-.12zm-134.51-123.71c7.79-13.81 5.79-35.7 35.12-59.88 40.41-33.29 99.06-32.95 142.4.62 26.43 20.46 32.36 55.14 34.23 58.33 4.52-8.74-4.52-32.99-8.22-39.99-27.53-52.17-94.11-70.65-141.48-49.73-27.42 12.11-17.83 10.39-31.58 19.67-4.39 2.97-3.45 2.26-6.41 6.6-11.82 17.35-25.86 28.85-24.06 64.38zm-93.88-24.56c-2.09-4.16.45-1.02-3.84-4.41-6.79-5.36-27.8-14.46-35.56-16.97-18.1-5.86-35.11-3.89-54.15-6.61-22.13-3.17-49.16-14.99-60.99-31.02l-12.03-17.83-75.8-1.03c-4.4 39.49 13.24 44.56-11.2 59.28l-44.55 26.03c-7.38 4.14-24.99 12.85-29.27 19.47l75.92-.45c31-.64 215.73 2.19 226.86-.04 3.76-8.92-.22-11.28 8.06-18.25 6.29-5.3 9.33-4.25 16.54-8.17zm-761.67-97.54c-3.89 27.94 15.63 69.74 36.61 88.05 43.88 38.33 96.24 31.41 156.44 31.4 30.9-.01 135.39 3.77 157.84-2.07 20.51-5.34 37.85-16.39 40.19-38.52 1.66-15.65 1.93-62.3.22-77.6-31.79-8.87-328.09-1.15-391.31-1.26zm385.42-158.5c-10.22-4.44-459.97-1.13-467.96-.98-6.92 83.15 77.22 124.38 147.41 124.03l179.12-.03c40.31-.01 128.47 11.68 141.12-37.81 2.23-8.72 2.53-78.68.31-85.21zm-511.7-80.01c59.06 52.7 159.7 37.88 235.52 39.11 39.98.64 186.75 1.95 218.07-2.65 27.87-4.09 56.41-24.41 58.93-50.55l-.07-105.56c-8.56-2.39-519.09-.86-560.78.11 6.53 59.75 8.56 69.54 48.32 119.54zm679.41-33.29l.28-93.75c-.01-13.48 5.2-16-2.12-26.12-5.66.06-46.66 18.67-52.25 23.86-1.58 7.11-.59 17.61-.24 25.41.53 11.61.26 14.56-11.6 14.13-5.47-6.18-9.17-15.67-11.5-19.25-2.2-.42-52.17-.97-53.38-.71-.43 3.69 1.12 19.97 1.16 27.07.07 10.39-.15 20.79-.07 31.2.17 20.76-.04 41.62-.07 62.4-.03 21.9-2.65 110.77 1.3 125.15 17.51 5.23 60.7 10.27 82.05 13.26 26.47 3.69 53.86 9.37 80.88 12.82 19.53 2.5 154.31 23.03 161.45 26.97 2.7 6.5 2.99 74.36-.87 79.24-4 2.61-2.4 1.53-8.32 1.26-43.54-2.27-75.99 1.63-93.37.72 5.48 14.36 93.72 29.28 103.49 30.11 9.53.81 35.12-1.02 41.05 2.95.74 2.1-17.8 49.99-11.83 67.12 2.47 3.26 51.47 3.5 54.07.91 4.87-4.84-9.91-50.63 35.97-93.75 20.46-19.23 51.56-36.17 92.9-35.78 43.3.41 69.7 17.65 91.24 37.46 4.3 3.95 4.25 3.94 7.47 8.89 34.79 53.66 17.05 33.89 28.07 83.77 6.07 1.5 29.44 2.38 35.17-1.13 3.79-22.21-8.12-58.91-16.38-75.28-2.62-5.19-6.27-10.27-9.27-15.4-7.63-13.04-34.94-31.66-35.66-32.97-3.98-7.21 5.83-100.39-3.6-119.94-4.76-9.88-13.67-20.93-23.95-25.23-35.29-14.78-47.91-7.06-61.56-7.87l-132.86-.08c-5.25-2.18-2.01-2.84-5.2-5.39-6.09 1.23-5.59 3.04-11.25 4.68-4.94 1.44-9.59.88-15 .88-44.24.03-27.75 8.03-50.63-34.53-13.15-24.46-27.18-41.34-40.48-61.38-9.45-14.23-13.6-15.92-27.25-23.1-4.74 3.52-138.17 12-137.84-8.62z" class="fil0" />
</svg>